<svg width="24" height="24" viewBox="0 0 24 24" fill="none" xmlns="http://www.w3.org/2000/svg">
<path fill-rule="evenodd" clip-rule="evenodd" d="M3.99944 6.2225C3.38096 6.57985 3 7.23993 3 7.95423V16.0457C3 16.76 3.38095 17.4201 3.99944 17.7774L10.9994 21.8219C11.6185 22.1796 12.3815 22.1796 13.0006 21.8219L20.0006 17.7774C20.619 17.4201 21 16.76 21 16.0457V7.95423C21 7.23993 20.619 6.57985 20.0006 6.2225L13.0006 2.17806C12.3815 1.82037 11.6185 1.82037 10.9994 2.17806L3.99944 6.2225ZM12 3.90979L18.0017 7.37742L16 8.53393L9.99834 5.06631L12 3.90979ZM7.99945 6.22122L14.0011 9.68885L12 10.845L5.99834 7.37742L7.99945 6.22122ZM5 9.11043L11 12.5771V19.5124L5 16.0457L5 9.11043ZM19 9.11043V16.0457L13 19.5124V12.5771L19 9.11043Z" fill="black"/>
</svg>
